M48
; DRILL file {KiCad 8.0.0} date 2025-06-18T17:56:35-0400
; FORMAT={-:-/ absolute / metric / decimal}
; #@! TF.CreationDate,2025-06-18T17:56:35-04:00
; #@! TF.GenerationSoftware,Kicad,Pcbnew,8.0.0
; #@! TF.FileFunction,Plated,1,2,PTH
FMAT,2
METRIC
; #@! TA.AperFunction,Plated,PTH,ComponentDrill
T1C0.800
; #@! TA.AperFunction,Plated,PTH,ComponentDrill
T2C0.900
; #@! TA.AperFunction,Plated,PTH,ComponentDrill
T3C1.000
; #@! TA.AperFunction,Plated,PTH,ComponentDrill
T4C1.016
; #@! TA.AperFunction,Plated,PTH,ComponentDrill
T5C1.100
%
G90
G05
T1
X121.158Y-50.749
X121.158Y-54.559
X131.318Y-50.749
X131.318Y-54.559
X135.128Y-50.749
X135.128Y-54.559
X145.288Y-50.749
X145.288Y-54.559
X149.098Y-50.749
X149.098Y-54.559
X159.258Y-50.749
X159.258Y-54.559
X163.068Y-50.749
X163.068Y-54.559
X173.228Y-50.749
X173.228Y-54.559
X177.038Y-50.749
X177.038Y-54.559
X187.198Y-50.749
X187.198Y-54.559
X191.008Y-50.749
X191.008Y-54.559
X201.168Y-50.749
X201.168Y-54.559
T2
X93.213Y-64.084
X95.753Y-64.084
X100.833Y-64.084
X103.373Y-64.084
X110.998Y-64.084
X113.538Y-64.084
X118.613Y-64.084
X121.153Y-64.084
X126.233Y-64.084
X128.773Y-64.084
X136.398Y-64.084
X138.938Y-64.084
X144.013Y-64.084
X146.553Y-64.084
X151.633Y-64.084
X154.173Y-64.084
X161.793Y-64.084
X164.333Y-64.084
X182.118Y-64.084
X184.658Y-64.084
X202.433Y-64.084
X204.973Y-64.084
X222.753Y-64.084
X225.293Y-64.084
T3
X210.693Y-54.559
X213.233Y-54.559
X215.773Y-54.559
X218.313Y-54.559
X220.853Y-54.559
T4
X125.984Y-46.939
X128.524Y-46.939
X131.064Y-46.939
X133.604Y-46.939
X135.128Y-95.199
X136.144Y-46.939
X137.668Y-95.199
X138.684Y-46.939
X140.208Y-95.199
X141.224Y-46.939
X142.748Y-95.199
X143.764Y-46.939
X145.288Y-95.199
X146.304Y-46.939
X147.828Y-95.199
X148.844Y-46.939
X150.368Y-95.199
X152.908Y-46.939
X152.908Y-95.199
X155.448Y-46.939
X157.988Y-46.939
X157.988Y-95.199
X160.528Y-46.939
X160.528Y-95.199
X163.068Y-46.939
X163.068Y-95.199
X165.608Y-46.939
X165.608Y-95.199
X168.148Y-46.939
X168.148Y-95.199
X170.688Y-46.939
X170.688Y-95.199
X173.228Y-95.199
X175.768Y-46.939
X175.768Y-95.199
X178.308Y-46.939
X180.848Y-46.939
X180.848Y-95.199
X183.388Y-46.939
X183.388Y-95.199
X185.928Y-46.939
X185.928Y-95.199
X188.468Y-46.939
X188.468Y-95.199
X191.008Y-46.939
X191.008Y-95.199
X193.548Y-46.939
X193.548Y-95.199
X196.088Y-95.199
X198.628Y-95.199
T5
X91.948Y-76.634
X91.948Y-83.134
X96.448Y-76.634
X96.448Y-83.134
X99.513Y-76.634
X99.513Y-83.134
X104.013Y-76.634
X104.013Y-83.134
X109.673Y-76.634
X109.673Y-83.134
X114.173Y-76.634
X114.173Y-83.134
X117.348Y-76.634
X117.348Y-83.134
X121.848Y-76.634
X121.848Y-83.134
X124.968Y-76.634
X124.968Y-83.134
X129.468Y-76.634
X129.468Y-83.134
X135.128Y-76.634
X135.128Y-83.134
X139.628Y-76.634
X139.628Y-83.134
X142.748Y-76.634
X142.748Y-83.134
X147.248Y-76.634
X147.248Y-83.134
X150.368Y-76.634
X150.368Y-83.134
X154.868Y-76.634
X154.868Y-83.134
X160.528Y-76.634
X160.528Y-83.134
X165.028Y-76.634
X165.028Y-83.134
X170.688Y-76.634
X170.688Y-83.134
X175.188Y-76.634
X175.188Y-83.134
X180.848Y-76.634
X180.848Y-83.134
X185.348Y-76.634
X185.348Y-83.134
X191.008Y-76.634
X191.008Y-83.134
X195.508Y-76.634
X195.508Y-83.134
X201.168Y-76.634
X201.168Y-83.134
X205.668Y-76.634
X205.668Y-83.134
X211.618Y-76.634
X211.618Y-83.134
X216.118Y-76.634
X216.118Y-83.134
X221.778Y-76.634
X221.778Y-83.134
X226.278Y-76.634
X226.278Y-83.134
M30
