G04 #@! TF.GenerationSoftware,KiCad,Pcbnew,8.0.0*
G04 #@! TF.CreationDate,2025-06-09T22:07:58-04:00*
G04 #@! TF.ProjectId,Kenbak_MEGA_10,4b656e62-616b-45f4-9d45-47415f31302e,rev?*
G04 #@! TF.SameCoordinates,Original*
G04 #@! TF.FileFunction,Copper,L2,Bot*
G04 #@! TF.FilePolarity,Positive*
%FSLAX46Y46*%
G04 Gerber Fmt 4.6, Leading zero omitted, Abs format (unit mm)*
G04 Created by KiCad (PCBNEW 8.0.0) date 2025-06-09 22:07:58*
%MOMM*%
%LPD*%
G01*
G04 APERTURE LIST*
G04 #@! TA.AperFunction,ComponentPad*
%ADD10C,2.000000*%
G04 #@! TD*
G04 #@! TA.AperFunction,ComponentPad*
%ADD11C,1.600000*%
G04 #@! TD*
G04 #@! TA.AperFunction,ComponentPad*
%ADD12O,1.600000X1.600000*%
G04 #@! TD*
G04 #@! TA.AperFunction,ComponentPad*
%ADD13R,1.800000X1.800000*%
G04 #@! TD*
G04 #@! TA.AperFunction,ComponentPad*
%ADD14C,1.800000*%
G04 #@! TD*
G04 #@! TA.AperFunction,ComponentPad*
%ADD15O,1.727200X1.727200*%
G04 #@! TD*
G04 #@! TA.AperFunction,ComponentPad*
%ADD16R,1.727200X1.727200*%
G04 #@! TD*
G04 #@! TA.AperFunction,ComponentPad*
%ADD17R,1.700000X1.700000*%
G04 #@! TD*
G04 #@! TA.AperFunction,ComponentPad*
%ADD18O,1.700000X1.700000*%
G04 #@! TD*
G04 #@! TA.AperFunction,Conductor*
%ADD19C,0.762000*%
G04 #@! TD*
G04 #@! TA.AperFunction,Conductor*
%ADD20C,0.380000*%
G04 #@! TD*
G04 APERTURE END LIST*
D10*
X216118000Y-76634200D03*
X216118000Y-83134200D03*
X211618000Y-76634200D03*
X211618000Y-83134200D03*
X147248000Y-76634200D03*
X147248000Y-83134200D03*
X142748000Y-76634200D03*
X142748000Y-83134200D03*
D11*
X121158000Y-54559200D03*
D12*
X131318000Y-54559200D03*
D11*
X149098000Y-54559200D03*
D12*
X159258000Y-54559200D03*
D13*
X144013000Y-64084200D03*
D14*
X146553000Y-64084200D03*
D10*
X154868000Y-76634200D03*
X154868000Y-83134200D03*
X150368000Y-76634200D03*
X150368000Y-83134200D03*
D13*
X126233000Y-64084200D03*
D14*
X128773000Y-64084200D03*
D10*
X160528000Y-83134200D03*
X160528000Y-76634200D03*
X165028000Y-83134200D03*
X165028000Y-76634200D03*
D13*
X202433000Y-64084200D03*
D14*
X204973000Y-64084200D03*
D10*
X205668000Y-76634200D03*
X205668000Y-83134200D03*
X201168000Y-76634200D03*
X201168000Y-83134200D03*
X129468000Y-76634200D03*
X129468000Y-83134200D03*
X124968000Y-76634200D03*
X124968000Y-83134200D03*
D11*
X163068000Y-50749200D03*
D12*
X173228000Y-50749200D03*
D13*
X222753000Y-64084200D03*
D14*
X225293000Y-64084200D03*
D13*
X93213000Y-64084200D03*
D14*
X95753000Y-64084200D03*
D10*
X121848000Y-76634200D03*
X121848000Y-83134200D03*
X117348000Y-76634200D03*
X117348000Y-83134200D03*
X226278000Y-76634200D03*
X226278000Y-83134200D03*
X221778000Y-76634200D03*
X221778000Y-83134200D03*
X114173000Y-76634200D03*
X114173000Y-83134200D03*
X109673000Y-76634200D03*
X109673000Y-83134200D03*
X104013000Y-76634200D03*
X104013000Y-83134200D03*
X99513000Y-76634200D03*
X99513000Y-83134200D03*
X139628000Y-76634200D03*
X139628000Y-83134200D03*
X135128000Y-76634200D03*
X135128000Y-83134200D03*
D11*
X191008000Y-54559200D03*
D12*
X201168000Y-54559200D03*
D13*
X182118000Y-64084200D03*
D14*
X184658000Y-64084200D03*
D11*
X135128000Y-54559200D03*
D12*
X145288000Y-54559200D03*
D11*
X191008000Y-50749200D03*
D12*
X201168000Y-50749200D03*
D11*
X135128000Y-50749200D03*
D12*
X145288000Y-50749200D03*
D13*
X136398000Y-64084200D03*
D14*
X138938000Y-64084200D03*
D13*
X118613000Y-64084200D03*
D14*
X121153000Y-64084200D03*
D13*
X100833000Y-64084200D03*
D14*
X103373000Y-64084200D03*
D10*
X185348000Y-76634200D03*
X185348000Y-83134200D03*
X180848000Y-76634200D03*
X180848000Y-83134200D03*
D11*
X177038000Y-50749200D03*
D12*
X187198000Y-50749200D03*
D15*
X135128000Y-95199200D03*
X142748000Y-95199200D03*
X145288000Y-95199200D03*
X157988000Y-95199200D03*
X160528000Y-95199200D03*
X163068000Y-95199200D03*
X165608000Y-95199200D03*
X168148000Y-95199200D03*
X170688000Y-95199200D03*
X173228000Y-95199200D03*
X175768000Y-95199200D03*
X180848000Y-95199200D03*
X183388000Y-95199200D03*
X185928000Y-95199200D03*
X188468000Y-95199200D03*
X191008000Y-95199200D03*
X193548000Y-95199200D03*
X196088000Y-95199200D03*
X198628000Y-95199200D03*
X131064000Y-46939200D03*
X170688000Y-46939200D03*
X168148000Y-46939200D03*
X165608000Y-46939200D03*
X163068000Y-46939200D03*
X160528000Y-46939200D03*
X157988000Y-46939200D03*
X155448000Y-46939200D03*
X152908000Y-46939200D03*
X148844000Y-46939200D03*
X146304000Y-46939200D03*
X143764000Y-46939200D03*
X141224000Y-46939200D03*
X138684000Y-46939200D03*
X136144000Y-46939200D03*
X175768000Y-46939200D03*
X178308000Y-46939200D03*
X180848000Y-46939200D03*
X183388000Y-46939200D03*
X185928000Y-46939200D03*
X188468000Y-46939200D03*
X191008000Y-46939200D03*
X193548000Y-46939200D03*
D16*
X133604000Y-46939200D03*
X147828000Y-95199200D03*
X150368000Y-95199200D03*
D15*
X137668000Y-95199200D03*
X140208000Y-95199200D03*
X125984000Y-46939200D03*
X128524000Y-46939200D03*
X152908000Y-95199200D03*
D10*
X96448000Y-76634200D03*
X96448000Y-83134200D03*
X91948000Y-76634200D03*
X91948000Y-83134200D03*
D13*
X151633000Y-64084200D03*
D14*
X154173000Y-64084200D03*
D10*
X195508000Y-76634200D03*
X195508000Y-83134200D03*
X191008000Y-76634200D03*
X191008000Y-83134200D03*
D11*
X177038000Y-54559200D03*
D12*
X187198000Y-54559200D03*
D11*
X163068000Y-54559200D03*
D12*
X173228000Y-54559200D03*
D11*
X149098000Y-50749200D03*
D12*
X159258000Y-50749200D03*
D11*
X121158000Y-50749200D03*
D12*
X131318000Y-50749200D03*
D10*
X170688000Y-83134200D03*
X170688000Y-76634200D03*
X175188000Y-83134200D03*
X175188000Y-76634200D03*
D13*
X161793000Y-64084200D03*
D14*
X164333000Y-64084200D03*
D17*
X210693000Y-54559200D03*
D18*
X213233000Y-54559200D03*
X215773000Y-54559200D03*
X218313000Y-54559200D03*
X220853000Y-54559200D03*
D13*
X110998000Y-64084200D03*
D14*
X113538000Y-64084200D03*
D19*
X147248000Y-83079200D02*
X147193000Y-83134200D01*
D20*
X104013000Y-76709200D02*
X104013000Y-83209200D01*
X216118000Y-76634200D02*
X216118000Y-83134200D01*
X226278000Y-76634200D02*
X226278000Y-83134200D01*
X129413000Y-76709200D02*
X129413000Y-83209200D01*
X154868000Y-76709200D02*
X154868000Y-83209200D01*
X175188000Y-76709200D02*
X175188000Y-83209200D01*
D19*
X147248000Y-76709200D02*
X147248000Y-83209200D01*
D20*
X139628000Y-76709200D02*
X139628000Y-83209200D01*
X185348000Y-76634200D02*
X185348000Y-83134200D01*
X121848000Y-76709200D02*
X121848000Y-83209200D01*
X96448000Y-76709200D02*
X96448000Y-83209200D01*
X195508000Y-76634200D02*
X195508000Y-83134200D01*
X205668000Y-76709200D02*
X205668000Y-83209200D01*
X114173000Y-76709200D02*
X114173000Y-83209200D01*
X191008000Y-48209200D02*
X191008000Y-46939200D01*
X201803000Y-48844200D02*
X191643000Y-48844200D01*
X209423000Y-56464200D02*
X201803000Y-48844200D01*
X218313000Y-55829200D02*
X217678000Y-56464200D01*
X217678000Y-56464200D02*
X209423000Y-56464200D01*
X218313000Y-54559200D02*
X218313000Y-55829200D01*
X191643000Y-48844200D02*
X191008000Y-48209200D01*
X213233000Y-50114200D02*
X215773000Y-52654200D01*
X215773000Y-52654200D02*
X215773000Y-54373956D01*
X215773000Y-54373956D02*
X215680378Y-54466578D01*
X206248000Y-50114200D02*
X213233000Y-50114200D01*
X193548000Y-46939200D02*
X203073000Y-46939200D01*
X203073000Y-46939200D02*
X206248000Y-50114200D01*
D19*
X96774000Y-91770200D02*
X88773000Y-83769200D01*
X145288000Y-97104200D02*
X208915000Y-97104200D01*
D20*
X121153000Y-67576700D02*
X121158000Y-67581700D01*
X95753000Y-64084200D02*
X95753000Y-67581700D01*
X225298000Y-67513200D02*
X225293000Y-67508200D01*
X128773000Y-64084200D02*
X128773000Y-67576700D01*
D19*
X138938000Y-67581700D02*
X128778000Y-67581700D01*
D20*
X103373000Y-67576700D02*
X103378000Y-67581700D01*
D19*
X229489000Y-84658200D02*
X229489000Y-65100200D01*
X154178000Y-67581700D02*
X146558000Y-67581700D01*
D20*
X121153000Y-64084200D02*
X121153000Y-67576700D01*
D19*
X88773000Y-74561700D02*
X95753000Y-67581700D01*
D20*
X164333000Y-64084200D02*
X164333000Y-67576700D01*
X154173000Y-67576700D02*
X154178000Y-67581700D01*
D19*
X164338000Y-67581700D02*
X154178000Y-67581700D01*
X184658000Y-67581700D02*
X164338000Y-67581700D01*
D20*
X184658000Y-64084200D02*
X184658000Y-67581700D01*
X154173000Y-64084200D02*
X154173000Y-67576700D01*
X146553000Y-64084200D02*
X146553000Y-67576700D01*
D19*
X229489000Y-67581700D02*
X204978000Y-67581700D01*
X145288000Y-97104200D02*
X108839000Y-97104200D01*
X103505000Y-91770200D02*
X96774000Y-91770200D01*
X88773000Y-83769200D02*
X88773000Y-74561700D01*
X128778000Y-67581700D02*
X121158000Y-67581700D01*
X121158000Y-67581700D02*
X113538000Y-67581700D01*
D20*
X164333000Y-67576700D02*
X164338000Y-67581700D01*
D19*
X208915000Y-97104200D02*
X214757000Y-91262200D01*
X204978000Y-67581700D02*
X184658000Y-67581700D01*
X145288000Y-95199200D02*
X145288000Y-97104200D01*
X146558000Y-67581700D02*
X138938000Y-67581700D01*
X229489000Y-65100200D02*
X220853000Y-56464200D01*
D20*
X128773000Y-67576700D02*
X128778000Y-67581700D01*
X138938000Y-64084200D02*
X138938000Y-67581700D01*
D19*
X103378000Y-67581700D02*
X95753000Y-67581700D01*
X214757000Y-91262200D02*
X222885000Y-91262200D01*
X108839000Y-97104200D02*
X103505000Y-91770200D01*
D20*
X225293000Y-67508200D02*
X225293000Y-64084200D01*
D19*
X113538000Y-67581700D02*
X103378000Y-67581700D01*
X222885000Y-91262200D02*
X229489000Y-84658200D01*
D20*
X103373000Y-64084200D02*
X103373000Y-67576700D01*
D19*
X220853000Y-56464200D02*
X220853000Y-54559200D01*
D20*
X146553000Y-67576700D02*
X146558000Y-67581700D01*
X113538000Y-64084200D02*
X113538000Y-67581700D01*
X204973000Y-67576700D02*
X204978000Y-67581700D01*
X204973000Y-64084200D02*
X204973000Y-67576700D01*
X152908000Y-48209200D02*
X155448000Y-50749200D01*
X155448000Y-50749200D02*
X159258000Y-50749200D01*
X152908000Y-46939200D02*
X152908000Y-48209200D01*
X112776000Y-91262200D02*
X158496000Y-91262200D01*
X103323000Y-86944200D02*
X108458000Y-86944200D01*
X99513000Y-76709200D02*
X99513000Y-83209200D01*
X158496000Y-91262200D02*
X160528000Y-93294200D01*
X99513000Y-83134200D02*
X103323000Y-86944200D01*
X108458000Y-86944200D02*
X112776000Y-91262200D01*
X160528000Y-93294200D02*
X160528000Y-95199200D01*
X150368000Y-76709200D02*
X150368000Y-83209200D01*
X175768000Y-94564200D02*
X175768000Y-95199200D01*
X166243000Y-85039200D02*
X175768000Y-94564200D01*
X150368000Y-83769200D02*
X151638000Y-85039200D01*
X151638000Y-85039200D02*
X166243000Y-85039200D01*
X150368000Y-83134200D02*
X150368000Y-83769200D01*
X170688000Y-76784200D02*
X170688000Y-83284200D01*
X174498000Y-86944200D02*
X177038000Y-86944200D01*
X170688000Y-83134200D02*
X174498000Y-86944200D01*
X177038000Y-86944200D02*
X183388000Y-93294200D01*
X183388000Y-93294200D02*
X183388000Y-95199200D01*
X142748000Y-84404200D02*
X144399000Y-86055200D01*
X165354000Y-86055200D02*
X173228000Y-93929200D01*
X142748000Y-76709200D02*
X142748000Y-83209200D01*
X173228000Y-93929200D02*
X173228000Y-95199200D01*
X144399000Y-86055200D02*
X165354000Y-86055200D01*
X142748000Y-83134200D02*
X142748000Y-84404200D01*
X124968000Y-85674200D02*
X127381000Y-88087200D01*
X124968000Y-83134200D02*
X124968000Y-85674200D01*
X127381000Y-88087200D02*
X162306000Y-88087200D01*
X168148000Y-93929200D02*
X168148000Y-95199200D01*
X162306000Y-88087200D02*
X168148000Y-93929200D01*
X124968000Y-76634200D02*
X124968000Y-83134200D01*
X117348000Y-76709200D02*
X117348000Y-83209200D01*
X165608000Y-93929200D02*
X165608000Y-95199200D01*
X160782000Y-89103200D02*
X165608000Y-93929200D01*
X117348000Y-83134200D02*
X117348000Y-85674200D01*
X117348000Y-85674200D02*
X120777000Y-89103200D01*
X120777000Y-89103200D02*
X160782000Y-89103200D01*
X159893000Y-48844200D02*
X164973000Y-48844200D01*
X164973000Y-48844200D02*
X166878000Y-50749200D01*
X166878000Y-50749200D02*
X173228000Y-50749200D01*
X157988000Y-46939200D02*
X159893000Y-48844200D01*
X166243000Y-80594200D02*
X166243000Y-80654957D01*
X166243000Y-80654957D02*
X180787243Y-95199200D01*
X163068000Y-80594200D02*
X166243000Y-80594200D01*
X160528000Y-83134200D02*
X163068000Y-80594200D01*
X160528000Y-76709200D02*
X160528000Y-83209200D01*
X180787243Y-95199200D02*
X180848000Y-95199200D01*
X211618000Y-76709200D02*
X211618000Y-83209200D01*
X209713000Y-85039200D02*
X201803000Y-85039200D01*
X211618000Y-83134200D02*
X209713000Y-85039200D01*
X201803000Y-85039200D02*
X193548000Y-93294200D01*
X193548000Y-93294200D02*
X193548000Y-95199200D01*
X202438000Y-86309200D02*
X196088000Y-92659200D01*
X221778000Y-76634200D02*
X221778000Y-83134200D01*
X221778000Y-83134200D02*
X218603000Y-86309200D01*
X196088000Y-92659200D02*
X196088000Y-95199200D01*
X218603000Y-86309200D02*
X202438000Y-86309200D01*
X135128000Y-76709200D02*
X135128000Y-83209200D01*
X170688000Y-93929200D02*
X170688000Y-95199200D01*
X135128000Y-83134200D02*
X135128000Y-83209200D01*
X135128000Y-85039200D02*
X137160000Y-87071200D01*
X137160000Y-87071200D02*
X163830000Y-87071200D01*
X163830000Y-87071200D02*
X170688000Y-93929200D01*
X135128000Y-83209200D02*
X135128000Y-85039200D01*
X109673000Y-84349200D02*
X115443000Y-90119200D01*
X109673000Y-76634200D02*
X109673000Y-83134200D01*
X159893000Y-90119200D02*
X163068000Y-93294200D01*
X163068000Y-93294200D02*
X163068000Y-95199200D01*
X109673000Y-83134200D02*
X109673000Y-84349200D01*
X115443000Y-90119200D02*
X159893000Y-90119200D01*
X178308000Y-48209200D02*
X184658000Y-54559200D01*
X178308000Y-46939200D02*
X178308000Y-48209200D01*
X184658000Y-54559200D02*
X187198000Y-54559200D01*
X91948000Y-83134200D02*
X98298000Y-89484200D01*
X107188000Y-89484200D02*
X109982000Y-92278200D01*
X91948000Y-76709200D02*
X91948000Y-83209200D01*
X155067000Y-92278200D02*
X157988000Y-95199200D01*
X98298000Y-89484200D02*
X107188000Y-89484200D01*
X109982000Y-92278200D02*
X155067000Y-92278200D01*
X191008000Y-76709200D02*
X191008000Y-83209200D01*
X188468000Y-85674200D02*
X188468000Y-95199200D01*
X191008000Y-83134200D02*
X188468000Y-85674200D01*
X191008000Y-93929200D02*
X191008000Y-95199200D01*
X201168000Y-76709200D02*
X201168000Y-83209200D01*
X201168000Y-83769200D02*
X191008000Y-93929200D01*
X201168000Y-83134200D02*
X201168000Y-83769200D01*
X185928000Y-93294200D02*
X185928000Y-95199200D01*
X180848000Y-88214200D02*
X185928000Y-93294200D01*
X180848000Y-83134200D02*
X180848000Y-88214200D01*
X180848000Y-76634200D02*
X180848000Y-83134200D01*
X105915500Y-50749200D02*
X121158000Y-50749200D01*
X93213000Y-64084200D02*
X93213000Y-63451700D01*
X93213000Y-63451700D02*
X105915500Y-50749200D01*
X100833000Y-64084200D02*
X100833000Y-62819200D01*
X100833000Y-62819200D02*
X109093000Y-54559200D01*
X109093000Y-54559200D02*
X121158000Y-54559200D01*
X110998000Y-64084200D02*
X110998000Y-63449200D01*
X116078000Y-58369200D02*
X121793000Y-58369200D01*
X127508000Y-52654200D02*
X133223000Y-52654200D01*
X121793000Y-58369200D02*
X127508000Y-52654200D01*
X110998000Y-63449200D02*
X116078000Y-58369200D01*
X110998000Y-64719200D02*
X110998000Y-64084200D01*
X133223000Y-52654200D02*
X135128000Y-50749200D01*
X122428000Y-61544200D02*
X125603000Y-58369200D01*
X125603000Y-58369200D02*
X131318000Y-58369200D01*
X118613000Y-62184200D02*
X119253000Y-61544200D01*
X118613000Y-64084200D02*
X118613000Y-62184200D01*
X119253000Y-61544200D02*
X122428000Y-61544200D01*
X131318000Y-58369200D02*
X135128000Y-54559200D01*
X133223000Y-61544200D02*
X142113000Y-52654200D01*
X126233000Y-62189200D02*
X126878000Y-61544200D01*
X142113000Y-52654200D02*
X147193000Y-52654200D01*
X126233000Y-64084200D02*
X126233000Y-62189200D01*
X147193000Y-52654200D02*
X149098000Y-50749200D01*
X126878000Y-61544200D02*
X133223000Y-61544200D01*
X137033000Y-61544200D02*
X142113000Y-61544200D01*
X136398000Y-62179200D02*
X137033000Y-61544200D01*
X142113000Y-61544200D02*
X149098000Y-54559200D01*
X136398000Y-64084200D02*
X136398000Y-62179200D01*
X144013000Y-64084200D02*
X144013000Y-63454200D01*
X154813000Y-52654200D02*
X161163000Y-52654200D01*
X144013000Y-63454200D02*
X154813000Y-52654200D01*
X161163000Y-52654200D02*
X163068000Y-50749200D01*
X156083000Y-61544200D02*
X163068000Y-54559200D01*
X151633000Y-62184200D02*
X152273000Y-61544200D01*
X151633000Y-64084200D02*
X151633000Y-62184200D01*
X152273000Y-61544200D02*
X156083000Y-61544200D01*
X175133000Y-52654200D02*
X177038000Y-50749200D01*
X161793000Y-64084200D02*
X161793000Y-60279200D01*
X169418000Y-52654200D02*
X175133000Y-52654200D01*
X161793000Y-60279200D02*
X169418000Y-52654200D01*
X182118000Y-64719200D02*
X182118000Y-64084200D01*
X177038000Y-59004200D02*
X177038000Y-54559200D01*
X182118000Y-64084200D02*
X177038000Y-59004200D01*
X202433000Y-64084200D02*
X202433000Y-62809200D01*
X199898000Y-50749200D02*
X201168000Y-50749200D01*
X197993000Y-58369200D02*
X197993000Y-52654200D01*
X197993000Y-52654200D02*
X199898000Y-50749200D01*
X202433000Y-62809200D02*
X197993000Y-58369200D01*
X210693000Y-64084200D02*
X201168000Y-54559200D01*
X222753000Y-64084200D02*
X210693000Y-64084200D01*
M02*
